<?xml version="1.0" encoding="utf-8"?>
<!-- Generator: Adobe Illustrator 18.0.0, SVG Export Plug-In . SVG Version: 6.00 Build 0)  -->
<!DOCTYPE svg PUBLIC "-//W3C//DTD SVG 1.1//EN" "http://www.w3.org/Graphics/SVG/1.1/DTD/svg11.dtd">
<svg version="1.1" id="logo" xmlns="http://www.w3.org/2000/svg" xmlns:xlink="http://www.w3.org/1999/xlink" x="0px" y="0px"
	 viewBox="0 0 166 30" enable-background="new 0 0 166 30" xml:space="preserve">
<g>
	<path fill="#2EAAB7" d="M51,22.7V8h4.4v14.7H51z"/>
	<path fill="#2EAAB7" d="M58.9,22.7V8H70v3.9h-6.7v1.5h6.5v3.9h-6.5v5.5H58.9z"/>
	<path fill="#2EAAB7" d="M81,22.7l-2-4.6h-1.6v4.6h-4.4V8h7.8c3.4,0,5.3,2.3,5.3,5c0,2.5-1.5,3.9-2.6,4.4l2.7,5.2H81z M81.5,13
		c0-0.8-0.7-1.1-1.5-1.1h-2.7v2.3h2.7C80.8,14.2,81.5,13.8,81.5,13z"/>
	<path fill="#2EAAB7" d="M99,22.7L98.5,21h-5.3l-0.5,1.7h-5L93,8h5.6l5.4,14.7H99z M95.8,12.4l-1.5,4.7h2.9L95.8,12.4z"/>
	<path fill="#2EAAB7" d="M118.8,22.7v-8.8l-3.3,8.8h-2l-3.3-8.8v8.8h-4.4V8h6.1l2.6,7l2.6-7h6.1v14.7H118.8z"/>
	<path fill="#2EAAB7" d="M126.8,22.7V8h11.1v3.9h-6.7v1.5h6.5v3.9h-6.5v1.6h6.7v3.9H126.8z"/>
	<path fill="#2EAAB7" d="M141.2,22.7V8h4.4v10.8h5.6v3.9H141.2z"/>
	<path fill="#2EAAB7" d="M155.7,22.7v-5.8L150.2,8h5l2.7,5l2.7-5h5l-5.5,8.8v5.8H155.7z"/>
</g>
<g>
	<g>
		<g>
			<path fill="#2EAAB7" d="M3.9,18.2l13-10.6V0L0,14.9L3.9,18.2z M6.4,20.2L16.9,29v-7.6l-6.1-4.9L6.4,20.2z M33.5,9.1L23,0v7.7
				l6.2,4.9L33.5,9.1z M35.8,11.1L23,21.5V29l16.8-14.5L35.8,11.1z"/>
		</g>
	</g>
</g>
</svg>
